<?xml version="1.0" encoding="UTF-8" standalone="no"?>
<!-- Generator: Adobe Illustrator 23.0.2, SVG Export Plug-In . SVG Version: 6.00 Build 0)  -->

<svg
   version="1.1"
   id="Layer_1"
   x="0px"
   y="0px"
   viewBox="0 0 379.918 323.039"
   enable-background="new 0 0 379.918 323.039"
   xml:space="preserve"
   sodipodi:docname="breaking-wall-zoom-fourth-post.svg"
   inkscape:version="1.1.1 (3bf5ae0d25, 2021-09-20)"
   inkscape:export-filename="C:\Users\davidb\Downloads\fourth-wall\breaking-wall-zooming-fourthl.png"
   inkscape:export-xdpi="96"
   inkscape:export-ydpi="96"
   xmlns:inkscape="http://www.inkscape.org/namespaces/inkscape"
   xmlns:sodipodi="http://sodipodi.sourceforge.net/DTD/sodipodi-0.dtd"
   xmlns:xlink="http://www.w3.org/1999/xlink"
   xmlns="http://www.w3.org/2000/svg"
   xmlns:svg="http://www.w3.org/2000/svg"><defs
   id="defs25"><linearGradient
   inkscape:collect="always"
   xlink:href="#linearGradient11345"
   id="linearGradient11347"
   x1="-28.203125"
   y1="129.75903"
   x2="240.24402"
   y2="129.75903"
   gradientUnits="userSpaceOnUse"
   gradientTransform="matrix(0,0.6184608,-0.6184608,0,170.44674,171.57501)" /><linearGradient
   inkscape:collect="always"
   id="linearGradient11345"><stop
     style="stop-color:#0078ff;stop-opacity:1"
     offset="0"
     id="stop11349" /><stop
     style="stop-color:#800080;stop-opacity:1"
     offset="1"
     id="stop11351" /></linearGradient>
	
	
	
	
	
	
	
	
	
</defs><sodipodi:namedview
   id="namedview23"
   pagecolor="#ffffff"
   bordercolor="#666666"
   borderopacity="1.0"
   inkscape:pageshadow="2"
   inkscape:pageopacity="0.0"
   inkscape:pagecheckerboard="0"
   showgrid="false"
   inkscape:zoom="1.2877702"
   inkscape:cx="116.86868"
   inkscape:cy="101.33796"
   inkscape:window-width="1920"
   inkscape:window-height="1017"
   inkscape:window-x="-8"
   inkscape:window-y="-8"
   inkscape:window-maximized="1"
   inkscape:current-layer="Layer_1" />
<polygon
   points="191,146.5356 179.5469,136.7788 165,146.0356 174.0762,132.1191 164,123.5356 171.3066,107.7973 141.2861,107.7973 134,119.5356 139,140.5356 121,125.5356 127.208,107.7973 0,107.7973 0,322.3579 198,322.3579 198,184.8691 173,186.5356 "
   id="polygon2"
   style="fill:#0000ff;fill-opacity:1" /><path
   d="m 311.0527,103.6274 c -12.0996,2.8164 -19.625,14.9102 -16.8086,27.0098 2.8184,12.0996 14.9122,19.625 27.0118,16.8066 12.0996,-2.8164 19.625,-14.9102 16.8066,-27.0098 -2.8174,-12.0996 -14.9102,-19.625 -27.0098,-16.8066 z"
   id="path4"
   style="fill:#800080" /><path
   d="m 261.0488,141.5102 c 0.8155,1.6128 1.6807,3.0903 2.585,4.4614 l 6.3564,-7.9057 c 0.7422,3.2129 1.6953,6.185 2.8477,8.9233 2.2021,5.3003 5.1885,9.6568 8.5762,13.1543 6.3877,2.437 13.2666,3.2583 19.1992,3.249 0.3799,5e-4 0.75,-0.005 1.1211,-0.0112 7.4658,-0.1191 13.083,-1.4468 13.4951,-1.5542 v -0.001 c 4.8086,-1.2534 9.7256,1.6294 10.9795,6.438 0.2334,0.896 0.3223,1.7954 0.2832,2.6738 -0.1719,3.8399 -2.8086,7.2847 -6.7217,8.3052 -0.459,0.1123 -7.2344,1.8696 -16.9746,2.1192 2.7559,13.5634 6.3984,31.1816 4.3408,46.517 -0.0137,0.2349 -0.0224,0.4566 -0.0342,0.6841 -1.9384,1.5972 -3.956,3.397 -5.9931,5.4283 -5.1826,5.1938 -10.4737,11.8974 -14.5,20.3183 -4.0293,8.4019 -6.7217,18.5444 -6.708,30.0391 -0.002,9.3437 1.7519,19.5342 5.6855,30.4267 1.836,5.0943 6.6377,8.2632 11.7569,8.2632 1.4082,0 2.8408,-0.2397 4.2421,-0.7451 6.4942,-2.3413 9.8594,-9.5063 7.5186,-15.9995 -3.0566,-8.4819 -4.2002,-15.7119 -4.2022,-21.9453 0.0108,-7.6607 1.709,-13.8877 4.2627,-19.2613 0.6866,-1.4438 1.4434,-2.8242 2.253,-4.142 0.6259,8.9399 2.7412,18.896 7.7949,28.6645 6.1914,12.0659 17.0947,23.4697 33.3916,31.2022 6.2266,2.978 13.6904,0.3461 16.6709,-5.8809 2.9775,-6.229 0.3467,-13.6929 -5.8809,-16.6729 -11.8174,-5.7182 -18.0615,-12.7094 -21.9863,-20.1562 -3.8769,-7.4482 -5.209,-15.7285 -5.2021,-23.2813 -0.004,-5.9018 0.8125,-11.269 1.625,-15.0463 0.4043,-1.8887 0.8056,-3.3809 1.0869,-4.3516 0.0293,-0.0991 0.0508,-0.1685 0.0771,-0.2564 1.7197,-2.4594 3.0791,-5.6699 3.8955,-9.8725 2.586,-22.2153 1.125,-35.3467 -5.6815,-55.521 -5.0332,-14.6421 -17.4102,-19.2778 -25.9453,-17.1499 -2.1563,0.5376 -4.0059,1.7002 -5.5225,3.2969 -3.6904,-0.8374 -7.457,-2.3457 -10.6211,-4.8872 -2.8906,-2.3067 -5.4941,-5.4366 -7.5361,-10.252 -2.0274,-4.8105 -3.4385,-11.3809 -3.4404,-20.3184 l 57.9853,-72.1162 16.1719,13.0025 21.6172,-26.8853 -16.1719,-13.0024 6.5801,-8.1831 -10.5215,-8.459 -6.5791,8.1826 L 337.0547,0 l -21.6182,26.8852 16.1719,13.0025 -50.9258,63.3364 c -0.9668,-0.5635 -2.0635,-0.939 -3.251,-1.0537 -4.3994,-0.4244 -8.3076,2.7978 -8.7304,7.1953 -0.3194,3.2998 -0.4893,6.4341 -0.5362,9.4277 l -14.3056,17.7915 c 2.9804,0.2891 5.7519,2.0498 7.1894,4.9253 z"
   id="path6"
   style="fill:#800080;fill-opacity:1" /><path
   d="m 251.9678,160.4804 c -2.6143,-3.1953 -4.9873,-6.8252 -7.0186,-10.9194 -0.207,-0.4141 -0.3672,-0.8379 -0.5058,-1.2651 l -12.461,15.498 10.5196,8.459 z"
   id="path8"
   style="fill:#800080" /><g
   id="g45826"
   style="fill:#0000ff;fill-opacity:1"><polygon
     points="213.7344,322.062 240.165,318.2417 204.6387,296.8198 "
     id="polygon10"
     style="fill:#0000ff;fill-opacity:1" /><polygon
     points="274,321.8696 275.333,305.8696 258.666,307.8696 "
     id="polygon12"
     style="fill:#0000ff;fill-opacity:1" /><polygon
     points="198,123.2031 198.5,117.2031 198,117.2631 173.5,120.2031 178.7314,124.9799 186.6816,132.2382 196.5,141.2031 "
     id="polygon14"
     style="fill:#0000ff;fill-opacity:1" /><polygon
     points="251,302.8696 238.334,313.5356 260.334,321.5356 "
     id="polygon16"
     style="fill:#0000ff;fill-opacity:1" /></g><path
   d="m 246.7422,148.6709 c 1.9433,3.9194 4.1621,7.2876 6.5117,10.2094 6.2852,7.8135 13.542,12.3291 19.2207,14.8731 8.2461,3.728 17.7109,5.6245 28.1387,5.6386 0.6035,-4e-4 1.1963,-0.007 1.7793,-0.02 8.6885,-0.1841 15.0176,-1.601 16.873,-2.0644 2.6963,-0.7027 4.6084,-2.8975 5.1016,-5.4673 0.1904,-0.9902 0.1767,-2.0337 -0.0938,-3.0723 -0.8046,-3.082 -3.5888,-5.2363 -6.7695,-5.2363 -0.5937,0 -1.1894,0.0776 -1.7715,0.231 -0.0615,0.0161 -6.2236,1.5512 -14.4502,1.6245 -0.2011,0.002 -0.3974,0.007 -0.6006,0.007 h -0.166 c -4.1484,0 -9.7343,-0.4019 -15.5088,-1.9775 -2.249,-0.6138 -4.5263,-1.4004 -6.7588,-2.419 -6.7148,-3.0986 -11.8769,-7.4248 -15.9296,-13.3896 -1.0967,-1.6138 -2.1172,-3.3409 -3.0586,-5.2036 -1.1953,-2.3873 -3.5967,-3.8711 -6.2676,-3.8711 -0.2471,0 -0.4902,0.0166 -0.7334,0.0424 -0.8281,0.087 -1.6299,0.3184 -2.3897,0.6978 -1.6738,0.8359 -2.9189,2.2749 -3.5117,4.0488 -0.3242,0.9756 -0.4219,1.9873 -0.3105,2.98 0.0898,0.813 0.3174,1.6133 0.6953,2.3687 z"
   id="path18"
   style="fill:#800080" />
<path
   id="path7011"
   style="display:inline;fill:url(#linearGradient11347);fill-opacity:1;stroke:#ffffff;stroke-width:6.18461;stroke-linecap:round;stroke-linejoin:round;stroke-miterlimit:4;stroke-dasharray:none"
   d="M 90.195863,317.06422 A 78.926229,79.919712 0 0 1 11.269634,237.14451 78.926229,79.919712 0 0 1 90.195863,157.22479 78.926229,79.919712 0 0 1 169.12209,237.14451 78.926229,79.919712 0 0 1 90.195863,317.06422 Z" /><g
   id="g45273"
   transform="matrix(0.6184608,0,0,0.6184608,24.626371,156.89363)"><path
     id="rect1480"
     style="fill:#ffffff;fill-opacity:1;stroke-width:0.738273;stroke-linecap:round;stroke-linejoin:round"
     d="m 54.774006,86.865185 h 62.665714 c 13.33152,0 24.06412,10.482823 24.06412,23.504145 v 37.76641 c 0,26.58624 4.97413,23.50422 -24.06412,23.50422 H 54.774006 c -13.331523,0 -24.064122,-10.48288 -24.064122,-23.50422 v -37.76641 c 0,-27.657061 -3.903218,-23.504145 24.064122,-23.504145 z"
     sodipodi:nodetypes="sssssssss" /><path
     id="rect3039"
     style="fill:#ffffff;fill-opacity:1;stroke-width:1.01895;stroke-linecap:round;stroke-linejoin:round"
     d="M 183.22916,87.123845 C 178.68544,82.835709 145.60407,112.1114 145.60407,112.1114 l -0.1788,34.8051 c 0,0 33.51281,28.09076 37.80389,24.80934 3.9101,-5.15265 3.28142,-78.039194 0,-84.601995 z"
     sodipodi:nodetypes="ccccc" /><text
     xml:space="preserve"
     style="font-style:normal;font-weight:normal;font-size:50.8px;line-height:1.25;font-family:sans-serif;fill:#000000;fill-opacity:1;stroke:none;stroke-width:0.264583"
     x="49.438122"
     y="145.46333"
     id="text38595"><tspan
       sodipodi:role="line"
       id="tspan38593"
       style="font-size:50.8px;stroke-width:0.264583"
       x="49.438122"
       y="145.46333">4th</tspan></text></g></svg>
