<?xml version="1.0" encoding="UTF-8" standalone="no"?>
<svg
   width="24px"
   height="16px"
   viewBox="0 0 24 16"
   version="1.1"
   id="svg14"
   sodipodi:docname="share-screen--freeicons_io--white.svg"
   inkscape:version="1.1.1 (3bf5ae0d25, 2021-09-20)"
   xmlns:inkscape="http://www.inkscape.org/namespaces/inkscape"
   xmlns:sodipodi="http://sodipodi.sourceforge.net/DTD/sodipodi-0.dtd"
   xmlns="http://www.w3.org/2000/svg"
   xmlns:svg="http://www.w3.org/2000/svg"
   xmlns:rdf="http://www.w3.org/1999/02/22-rdf-syntax-ns#"
   xmlns:cc="http://creativecommons.org/ns#"
   xmlns:dc="http://purl.org/dc/elements/1.1/">
  <defs
     id="defs18" />
  <sodipodi:namedview
     id="namedview16"
     pagecolor="#ffffff"
     bordercolor="#666666"
     borderopacity="1.0"
     inkscape:pageshadow="2"
     inkscape:pageopacity="0.0"
     inkscape:pagecheckerboard="true"
     showgrid="false"
     inkscape:zoom="44.083333"
     inkscape:cx="11.988658"
     inkscape:cy="7.9962193"
     inkscape:window-width="1920"
     inkscape:window-height="1017"
     inkscape:window-x="-8"
     inkscape:window-y="-8"
     inkscape:window-maximized="1"
     inkscape:current-layer="Communication" />
  <!-- Generator: Sketch 52.5 (67469) - http://www.bohemiancoding.com/sketch -->
  <title
     id="title2">screen_share</title>
  <desc
     id="desc4">Created with Sketch.</desc>
  <g
     id="Icons"
     stroke="none"
     stroke-width="1"
     fill="none"
     fill-rule="evenodd">
    <g
       id="Outlined"
       transform="translate(-916.000000, -1264.000000)">
      <g
         id="Communication"
         transform="translate(100.000000, 1162.000000)">
        <g
           id="Outlined-/-Communication-/-screen_share"
           transform="translate(816.000000, 98.000000)">
          <g
             id="g8">
            <polygon
               id="Path"
               points="0 0 24 0 24 24 0 24" />
            <path
               d="M20,18 C21.1,18 21.99,17.1 21.99,16 L22,6 C22,4.89 21.1,4 20,4 L4,4 C2.89,4 2,4.89 2,6 L2,16 C2,17.1 2.89,18 4,18 L0,18 L0,20 L24,20 L24,18 L20,18 Z M4,16 L4,6 L20,6 L20,16.01 L4,16 Z M13,9.13 C9.11,9.67 7.56,12.33 7,15 C8.39,13.13 10.22,12.28 13,12.28 L13,14.47 L17,10.73 L13,7 L13,9.13 Z"
               id="🔹-Icon-Color"
               fill="#1D1D1D"
               style="fill:#ffffff" />
          </g>
        </g>
      </g>
    </g>
  </g>
  <metadata
     id="metadata25">
    <rdf:RDF>
      <cc:Work
         rdf:about="">
        <dc:title>screen_share</dc:title>
      </cc:Work>
    </rdf:RDF>
  </metadata>
</svg>
