<?xml version="1.0" encoding="UTF-8"?>
<svg id="Layer_1" data-name="Layer 1" xmlns="http://www.w3.org/2000/svg" viewBox="0 0 28.88 23.51">
  <path d="M28.88,6.68v14.04s-.03,.05-.04,.07c-.36,1.73-1.55,2.71-3.32,2.71-7.39,0-14.77,0-22.16,0-.23,0-.47,0-.7-.05C1.07,23.17,0,21.88,0,20.25,0,15.92,0,11.59,0,7.26c0-1.99,1.35-3.35,3.34-3.35,1.15,0,2.29,0,3.44,0,.1,0,.2,0,.34,0,0-.34,0-.65,0-.95C7.12,1.21,8.31,0,10.05,0c2.92,0,5.85,0,8.77,0,.27,0,.55,.02,.81,.09,1.32,.36,2.12,1.42,2.13,2.8,0,.33,0,.65,0,1.01,.14,0,.25,0,.36,0,1.24,0,2.48-.02,3.72,.01,1.34,.03,2.54,.99,2.9,2.28,.05,.16,.09,.32,.13,.48Zm-14.43,14.08c3.89-.02,7.05-3.19,7.04-7.06,0-3.88-3.19-7.06-7.06-7.04-3.9,.02-7.08,3.21-7.04,7.09,.03,3.88,3.22,7.04,7.06,7.02Z"/>
  <path d="M19.1,13.69c.02,2.54-2.07,4.65-4.63,4.66-2.57,.02-4.66-2.06-4.68-4.64-.02-2.54,2.07-4.65,4.63-4.67,2.56-.02,4.66,2.06,4.68,4.64Z"/>
</svg>