<?xml version="1.0" encoding="UTF-8"?>
<svg id="Layer_1" data-name="Layer 1" xmlns="http://www.w3.org/2000/svg" viewBox="0 0 383.25 383.29">
  <defs>
    <style>
      .cls-1 {
        fill: #fff;
      }
    </style>
  </defs>
  <path d="M383.25,368.28c-.4,.88-.84,1.75-1.18,2.66-4.79,12.57-20.06,16.33-30.13,7.41-1.03-.91-1.97-1.91-2.94-2.88-51.33-51.33-102.66-102.65-153.96-154-1.04-1.04-1.72-2.44-2.7-3.88-1.91,1.83-2.99,2.82-4.03,3.86-51.68,51.67-103.36,103.36-155.05,155.03-7.16,7.15-15.62,8.74-23.42,4.47-10.24-5.6-12.99-18.75-5.79-27.93,1.15-1.47,2.51-2.77,3.83-4.1,51.14-51.16,102.29-102.31,153.46-153.44,1.14-1.14,2.46-2.12,4.03-3.46-1.37-1.44-2.34-2.5-3.36-3.52C110.24,136.72,58.48,84.94,6.69,33.2,.67,27.18-1.66,20.34,1.25,12.12,3.57,5.57,8.78,2.21,14.97,0h7.49c5.52,1.74,9.57,5.47,13.57,9.47,50.76,50.85,101.59,101.63,152.35,152.47,1.02,1.03,1.51,2.59,2.24,3.91,.58-.22,1.17-.43,1.75-.65,1-1.27,1.89-2.65,3.03-3.79,50.61-50.65,101.25-101.26,151.83-151.93,3.99-4,8.05-7.73,13.56-9.48h7.49c7.64,2.34,12.56,7.41,14.97,14.97v7.49c-1.8,5.63-5.65,9.75-9.74,13.83-50.76,50.67-101.46,101.4-152.17,152.12-1.03,1.03-2.01,2.09-3.4,3.55,1.41,1.21,2.61,2.11,3.66,3.16,50.55,50.53,101.07,101.08,151.65,151.58,4.17,4.16,8.13,8.36,10,14.1v7.49Z"/>
  <path class="cls-1" d="M383.25,14.97c-2.41-7.57-7.33-12.63-14.97-14.97h14.97V14.97Z"/>
</svg>