<?xml version="1.0" encoding="UTF-8"?>
<svg id="Layer_1" data-name="Layer 1" xmlns="http://www.w3.org/2000/svg" viewBox="0 0 383.13 216.06">
  <defs>
    <style>
      .cls-1 {
        fill: #afafaf;
      }
    </style>
  </defs>
  <path class="cls-1" d="M383.13,195.14c-.39,1.3-.78,2.6-1.18,3.9-5.15,16.58-25.27,22.43-38.46,11.18-1.23-1.05-2.36-2.22-3.51-3.37-48.34-48.43-96.69-96.86-145.01-145.32-1.04-1.05-1.79-2.39-2.68-3.6-.6-.16-1.2-.32-1.79-.48-.76,1.3-1.27,2.84-2.3,3.87-48.65,48.83-97.37,97.6-146.03,146.41-7.11,7.14-15.35,10.15-25.17,7.22-16.4-4.89-22.38-24.97-11.49-38.2,1.11-1.35,2.36-2.58,3.59-3.81C63.53,118.4,117.95,63.86,172.38,9.33c12.42-12.44,25.83-12.44,38.25,0,53.37,53.47,106.71,106.97,160.15,160.38,5.44,5.44,10.51,10.94,12.35,18.68v6.75Z"/>
</svg>