<svg id="Layer_1" data-name="Layer 1" xmlns="http://www.w3.org/2000/svg" viewBox="0 0 514.08639 514.08639"><defs><style>.cls-1{opacity:0.77;}.cls-2{fill:#fff;}</style></defs><g class="cls-1"><rect width="514.08639" height="514.08639" rx="46"/></g><path class="cls-2" d="M62.12105,72.79028c2.98724-6.477,8.1141-8.45384,15.08061-8.34226,19.45383.31158,38.916.08519,58.37471.12175,6.74445.01268,11.58478,4.27722,11.96725,10.36279.43185,6.87121-4.50729,12.03164-11.76759,12.06009-15.59176.0611-31.18393.0195-46.77594.01993-1.34151,0-2.683,0-4.41744,0V96.9497q0,19.26714-.00013,38.53427c-.00031,8.22246-2.53631,12.55824-8.27588,14.15254-5.66687,1.57409-10.29894-1.03176-14.18559-7.98035Z"/><path class="cls-2" d="M62.12105,370.71006c1.33276-1.90317,2.37666-4.12676,4.05869-5.64253a10.31345,10.31345,0,0,1,11.85414-1.6664c4.37082,2.01089,6.51933,5.67815,6.53147,10.46541.03983,15.70545.01642,31.41106.0173,47.11662.00007,1.33666,0,2.67329,0,4.37048h11.475q18.51453,0,37.02905.00009c8.21733.00026,12.52782,2.52581,14.14213,8.28432,1.57694,5.62512-1.04649,10.27854-7.98957,14.17186H70.357a17.26009,17.26009,0,0,1-8.23592-8.234Z"/><path class="cls-2" d="M368.34764,447.80991c-1.90393-1.33307-4.12932-2.3768-5.64456-4.05969a10.281,10.281,0,0,1-1.65684-11.85293c2.02478-4.36477,5.6758-6.51845,10.47459-6.52894q23.20271-.05075,46.4056-.01471c1.4929-.00009,2.98577,0,5.07776,0,0-1.42912,0-2.73452,0-4.03995q0-22.63605.00089-45.27214c.00172-8.66577,4.18644-13.70347,11.33-13.65251,6.97547.04978,11.12778,5.06854,11.12956,13.47358.004,18.95693-.20372,37.91722.10858,56.869.11475,6.96139-1.87648,12.08475-8.34327,15.07828Z"/><path class="cls-2" d="M57.137,410.43155a17.26009,17.26009,0,0,0,8.23592,8.234H57.137Z"/><path class="cls-2" d="M253.97387,130.48568q56.52453-.00008,113.04907.00118c7.439.00053,9.36135,1.89182,9.36393,9.24864q.01141,32.74648-.00153,65.493c-.00363,6.958-2.00684,8.97123-8.865,8.97659q-14.599.0114-29.1981-.00077c-6.58453-.00692-8.64042-2.08724-8.6616-8.78955-.02169-6.86112.04017-13.72276-.0226-20.58336-.05009-5.47359-2.24413-7.69252-7.79048-7.72181q-18.52905-.09786-37.05884.00538c-5.42381.03385-7.7095,2.41191-7.71129,7.86224q-.0279,86.07649-.00269,172.153c.00146,5.68645,2.25665,7.98565,7.89647,8.07268,4.86522.07509,9.73293-.02264,14.5987.03114,5.39276.05958,7.61982,2.13387,7.65914,7.39258q.1189,15.90453-.0029,31.81044c-.04021,5.01047-2.40055,7.35686-7.387,7.36326q-46.04343.059-92.08694,0c-5.00477-.00642-7.352-2.33675-7.39176-7.35236q-.12612-15.90441-.00349-31.81046c.03832-5.26634,2.25752-7.34342,7.64386-7.4033,4.86577-.05409,9.73345.04352,14.59868-.03111,5.63971-.08646,7.91078-2.3905,7.9123-8.06081q.02307-86.07648-.00228-172.153c-.00178-5.44442-2.29784-7.83959-7.70539-7.87381q-18.52883-.11729-37.05884-.00568c-5.69539.03073-7.76722,2.244-7.80282,8.08729-.0418,6.86092.0171,13.72244-.02037,20.58341-.03393,6.20985-2.207,8.40963-8.28294,8.42112q-15.1605.02865-30.32107-.00187c-5.85244-.01431-8.10079-2.25814-8.10834-8.21625q-.04241-33.49494-.00383-66.98995c.00583-6.36131,2.18708-8.5017,8.596-8.50324Q196.88783,130.47652,253.97387,130.48568Z"/><path class="cls-2" d="M423.00422,87.01188c-17.35433,0-34.17794.02392-51.00143-.01242-6.25305-.01351-10.9443-3.74228-11.86533-9.25548-1.12127-6.71181,3.68253-13.05121,10.54812-13.10678q31.98781-.2589,63.979-.01382a10.79246,10.79246,0,0,1,10.736,10.82324q.18926,31.79421.00886,63.5901a11.18867,11.18867,0,0,1-22.37377-.38311c-.08832-15.71017-.03044-31.42115-.03144-47.13181C423.00413,90.17031,423.00422,88.81881,423.00422,87.01188Z"/></svg>