<?xml version="1.0" encoding="UTF-8"?>
<svg id="Layer_1" data-name="Layer 1" xmlns="http://www.w3.org/2000/svg" viewBox="0 0 383.33 383.26">
  <path d="M309.22,383.26h-7.49c-10.89-3.79-14.85-11.63-14.34-22.85,.5-10.95,.11-21.94,.11-32.91v-4.12h-4.99c-59.36,0-118.73,.02-178.09-.05-4.08,0-8.27-.27-12.22-1.2-19.56-4.64-32.28-21.15-32.29-41.76-.04-59.97-.01-119.95-.01-179.92,0-1.45,0-2.9,0-4.62-13.52,0-26.59,.02-39.66-.02-1.98,0-4.01-.05-5.94-.43-7.66-1.53-11.71-6.91-14.3-13.77v-7.49c3.73-10.7,11.37-14.81,22.5-14.33,11.08,.48,22.21,.11,33.31,.11,1.31,0,2.62,0,4.09,0,0-14.03-.03-27.5,0-40.97C59.94,8.07,67.66,0,77.88,0c10.25,0,17.9,8.05,17.94,18.95,.04,12.23,.01,24.45,.01,36.68,0,1.33,0,2.65,0,4.25,1.92,0,3.4,0,4.87,0,59.52,0,119.04-.02,178.57,.05,3.96,0,8.02,.28,11.86,1.19,19.55,4.63,32.29,21.14,32.3,41.79,.04,60.01,.02,120.02,.02,180.03,0,1.44,0,2.88,0,4.51,14.12,0,27.71-.04,41.3,.01,10.58,.04,18.57,7.81,18.58,17.92,.01,10.09-7.99,17.92-18.53,17.98-12.35,.06-24.71,.02-37.06,.02-1.33,0-2.66,0-4.29,0v4.46c0,11.98,.02,23.95-.02,35.93,0,1.74-.08,3.51-.42,5.2-1.56,7.65-6.9,11.73-13.78,14.3ZM95.84,95.81v4.17c0,59.61,0,119.23,0,178.84,0,6.88,1.73,8.62,8.6,8.62,59.63,0,119.25,0,178.88,0h4.2v-4.54c0-59.36,0-118.73,0-178.09,0-7.39-1.6-9-8.97-9-59.38,0-118.75,0-178.13,0h-4.57Z"/>
</svg>