<?xml version="1.0" encoding="UTF-8"?>
<svg id="Layer_1" data-name="Layer 1" xmlns="http://www.w3.org/2000/svg" viewBox="0 0 224.18 219.99">
  <path d="M175.23,97.57c-8.66,0-17.33,.23-25.98-.05-12.29-.4-22.43-10.67-22.58-22.99-.21-17.08-.22-34.16,0-51.23,.17-12.89,10.59-22.92,24.06-23.11,16.4-.24,32.82-.25,49.22,0,14.21,.22,24.12,10.63,24.14,24.85,.03,15.91,.03,31.82,0,47.74-.03,14.35-10.01,24.58-24.38,24.85-8.16,.16-16.32,.03-24.49,.03,0-.03,0-.05,0-.08Zm32.87-48.65c0-7.83,0-15.66,0-23.5,0-6.12-3.1-9.28-9.19-9.29-15.74-.02-31.49-.03-47.23,0-5.92,.01-9.08,3.22-9.08,9.15,0,15.75,0,31.5,0,47.24,0,5.97,3.08,9.1,9.07,9.11,15.83,.03,31.66,.03,47.48,0,5.85-.01,8.94-3.16,8.95-8.98,.01-7.92,0-15.83,0-23.75Z"/>
  <path d="M48.62,97.58c-8.58,0-17.16,.22-25.73-.05C10.31,97.12,.23,86.79,.12,74.2c-.15-16.83-.15-33.66,0-50.48C.23,10.54,10.61,.36,24.28,.18c16.32-.22,32.65-.21,48.97,0,14.31,.18,24.29,10.59,24.32,24.94,.03,15.83,.03,31.66,0,47.49-.02,14.64-10.06,24.84-24.72,25.04-8.08,.11-16.16,.02-24.24,.02,0-.03,0-.05,0-.08Zm-.11-15.93c8,0,15.99,.03,23.99,0,6-.03,9.07-3.13,9.07-9.11,.01-15.75,.01-31.5,0-47.24,0-5.94-3.15-9.14-9.08-9.15-15.74-.03-31.49-.02-47.23,0-6.07,0-9.19,3.19-9.2,9.28,0,15.66,0,31.33,0,46.99,0,6.13,3.05,9.21,9.2,9.23,7.75,.03,15.49,0,23.24,0Z"/>
  <path d="M48.88,122.42c8.66,0,17.33-.22,25.98,.05,12.34,.39,22.46,10.56,22.63,22.92,.23,17.08,.23,34.16,0,51.23-.17,13.03-10.65,23.02-24.25,23.2-16.24,.2-32.49,.19-48.72,0-14.44-.16-24.44-10.57-24.46-25.07-.02-15.83-.02-31.66,0-47.49,.02-14.48,10.04-24.69,24.57-24.92,8.08-.13,16.16-.02,24.24-.02,0,.03,0,.05,0,.08Zm-32.81,48.52c0,8-.01,16,0,24,.01,5.6,3.2,8.9,8.8,8.92,15.99,.05,31.99,.05,47.98,0,5.49-.02,8.71-3.32,8.71-8.75,.02-16,.02-32,0-47.99,0-5.46-3.19-8.72-8.68-8.74-16.08-.05-32.16-.05-48.23,0-5.46,.02-8.58,3.31-8.59,8.83-.02,7.92,0,15.83,0,23.75Z"/>
  <path d="M175.4,122.42c8.66,0,17.33-.22,25.98,.05,12.45,.4,22.52,10.66,22.66,23.16,.19,16.91,.18,33.82,0,50.73-.13,13.17-10.56,23.28-24.26,23.45-16.32,.21-32.65,.23-48.97,0-14.22-.21-24.18-10.61-24.22-24.79-.04-16-.04-31.99,0-47.99,.04-14.08,9.96-24.31,24.06-24.65,8.24-.2,16.49-.04,24.74-.04,0,.02,0,.04,0,.06Zm.16,15.92c-7.91,0-15.83-.02-23.74,0-6.15,.02-9.22,3.11-9.23,9.21,0,15.66,0,31.33,0,46.99,0,6.12,3.1,9.3,9.18,9.31,15.66,.03,31.32,.02,46.98,0,6.29,0,9.34-3.1,9.35-9.39,0-15.58,0-31.16,0-46.74,0-6.32-3-9.36-9.3-9.38-7.75-.02-15.49,0-23.24,0Z"/>
</svg>