<?xml version="1.0" encoding="UTF-8"?>
<svg id="Layer_1" data-name="Layer 1" xmlns="http://www.w3.org/2000/svg" viewBox="0 0 262.73 379.6">
  <defs>
    <style>
      .cls-1 {
        fill: #767676;
      }
    </style>
  </defs>
  <path class="cls-1" d="M54.95,379.6c-.62-.33-1.23-.7-1.87-.99-6.63-2.94-10.3-9.39-9.14-16.11,1.16-6.71,7.15-11.9,14.43-11.96,17.78-.14,35.56-.06,53.34-.06,1.46,0,2.91,0,4.64,0v-29.99c-5.13-.99-10.36-1.76-15.46-3.01-44.37-10.88-74.45-38.46-92.17-79.91C2.2,222.32-.07,206.03,0,189.45c.04-9.14-.03-18.27,.02-27.41,.05-9.22,6.1-15.81,14.44-15.85,8.51-.04,14.53,6.6,14.63,16.06,.12,11.72-.1,23.47,.51,35.17,1.33,25.85,11.89,47.73,30.52,65.42,31.7,30.1,69.05,37.44,109.14,21.64,35.2-13.87,57.12-40.89,62.65-78.99,2.11-14.55,1.17-29.54,1.57-44.33,.25-8.99,7.08-15.52,15.72-14.93,6.66,.46,13.11,6.25,13.17,12.84,.17,18,1.33,36.08-1.68,53.96-3.44,20.43-11.55,38.94-24.18,55.37-14.32,18.63-31.9,33.21-53.72,42.39-10.28,4.32-20.95,7.24-32,8.79-1.46,.21-2.91,.49-4.6,.78v30.12c1.44,0,2.86,0,4.28,0,17.66,0,35.31-.07,52.97,.04,9.25,.06,15.74,6.65,15.28,15.31-.3,5.68-3.34,9.65-8.25,12.29-.95,.51-1.91,.99-2.86,1.49H54.95Z"/>
  <path class="cls-1" d="M203.99,131.65c0,20.86,.41,41.73-.09,62.57-.8,33.21-28.21,62.93-61.09,67.75-40.16,5.9-71.13-19.34-80.72-49.13-2.56-7.95-3.52-16.7-3.6-25.1-.37-37.52-.15-75.04-.16-112.57,0-31.21,14.35-53.92,41.78-67.88C127.74-6.78,162.31,.14,183.78,22.69c13.99,14.69,20.62,32.09,20.45,52.31-.16,18.88-.04,37.77-.04,56.65-.07,0-.14,0-.2,0Z"/>
</svg>