<svg xmlns="http://www.w3.org/2000/svg" xmlns:xlink="http://www.w3.org/1999/xlink" width="16.056" height="27.89" viewBox="0 0 16.056 27.89">
  <defs>
    <clipPath id="clip-path">
      <path id="Path_8" data-name="Path 8" d="M58.817,13.966c0,2.241.108,4.486-.026,6.718a7.259,7.259,0,0,1-4.959,6.62A8.035,8.035,0,0,1,42.98,21.688a8.427,8.427,0,0,1-.166-1.745q-.021-6.033,0-12.068a7.7,7.7,0,0,1,5.4-7.445,8.144,8.144,0,0,1,10.067,4.4,8.236,8.236,0,0,1,.581,3.1c.006,2.012,0,4.022,0,6.034h-.038Z" transform="translate(-42.802 0.006)" fill="#767676"/>
    </clipPath>
    <clipPath id="clip-path-2">
      <ellipse id="Ellipse_5" data-name="Ellipse 5" cx="8.028" cy="7.697" rx="8.028" ry="7.697" fill="none"/>
    </clipPath>
  </defs>
  <g id="Mask_Group_1" data-name="Mask Group 1" transform="translate(0 0)" clip-path="url(#clip-path)">
    <g id="audio_icon" transform="translate(0 2.689)">
      <path id="Path_10" data-name="Path 10" d="M13.169,8.588c0,1.377.066,2.757-.016,4.129a4.462,4.462,0,0,1-3.048,4.069,4.939,4.939,0,0,1-6.67-3.452,5.18,5.18,0,0,1-.1-1.072q-.013-3.708,0-7.418A4.734,4.734,0,0,1,6.648.268a5.006,5.006,0,0,1,6.188,2.707,5.062,5.062,0,0,1,.357,1.9c0,1.237,0,2.472,0,3.709H13.17Z" transform="translate(-0.262 0)" fill="#767676"/>
      <g id="Group_3" data-name="Group 3" transform="translate(0 4.625)" clip-path="url(#clip-path-2)">
        <path id="Path_11" data-name="Path 11" d="M3.716,25.3a2.164,2.164,0,0,1-.441-.278.775.775,0,0,1-.155-.916.813.813,0,0,1,.789-.5c.98-.007,1.96,0,2.94,0h.28V21.363c-.434-.091-.877-.161-1.3-.28a7.816,7.816,0,0,1-4.69-3.465A7.455,7.455,0,0,1,0,13.78a.87.87,0,0,1,1.071-.932.808.808,0,0,1,.689.775A7.116,7.116,0,0,0,2.2,15.848,6.308,6.308,0,0,0,8.989,19.59a6.084,6.084,0,0,0,4.979-4.052A6.739,6.739,0,0,0,14.3,13.6a.88.88,0,0,1,1.367-.633.84.84,0,0,1,.392.766A7.757,7.757,0,0,1,10.4,21.041c-.41.123-.842.18-1.264.267-.07.015-.141.027-.215.041v2.258H9.18c.988,0,1.976,0,2.964,0a.813.813,0,0,1,.789.5.775.775,0,0,1-.155.916,2.184,2.184,0,0,1-.441.278H3.716Z" transform="translate(-0.029 -6.016)" fill="#767676"/>
      </g>
      <rect id="Rectangle_32" data-name="Rectangle 32" width="8.13" height="1.763" rx="0.881" transform="translate(3.963 20.749)" fill="#767676"/>
    </g>
  </g>
</svg>
