<?xml version="1.0" encoding="utf-8"?>
<!-- Generator: Adobe Illustrator 26.4.0, SVG Export Plug-In . SVG Version: 6.00 Build 0)  -->
<svg version="1.1" id="Layer_1" xmlns="http://www.w3.org/2000/svg" xmlns:xlink="http://www.w3.org/1999/xlink" x="0px" y="0px"
	 viewBox="0 0 81.5 76.5" style="enable-background:new 0 0 81.5 76.5;" xml:space="preserve">
<style type="text/css">
	.st0{fill:#FFFFFF;}
</style>
<path class="st0" d="M31,10.1c-0.3-3.2,2.2-3.9,3.9-5.3c1.6-1.3,3.3-2.5,5-3.7c1.8-1.3,3.6-1.5,5.5-0.1c0.5,0.4,1.1,0.8,1.6,1.2
	C53,8.1,59,14,65.1,19.8c4.7,4.5,9.5,8.9,14.2,13.3c0.7,0.7,1.3,1.4,2.2,2.3c-3.9,3.4-7.6,6.7-11.4,9.9c-5.4,4.7-10.8,9.3-16.2,13.9
	c-6.3,5.5-12.7,11-19.1,16.4c-0.7,0.6-2,0.6-3,0.8c-0.2-0.8-0.6-1.7-0.6-2.5c-0.1-2.8-0.1-5.7,0-8.5c0.1-1.9-0.7-2.4-2.5-2.4
	c-8.6,0.1-17.2,0-25.8,0.1c-2.3,0-2.9-0.7-2.9-3C0.2,48.6,0.4,37,0,25.5c-0.2-4.6,1.9-7.3,5-9.8c0.4-0.3,0.9-0.5,1.2-0.9
	c3-4.4,7.4-5.1,12.3-4.7C22.5,10.3,26.6,10.1,31,10.1L31,10.1z M37.9,12.6c-0.2,0.1-0.5,0.2-0.7,0.3c0,2.2-0.1,4.4,0,6.7
	c0.1,2-0.6,2.6-2.6,2.5c-8.6-0.1-17.2,0-25.7-0.1c-2.1,0-2.7,0.7-2.7,2.7c0.1,10.6,0.1,21.2,0,31.8c0,2.1,0.7,2.7,2.7,2.7
	c8.5-0.1,17,0,25.5-0.1c2.1,0,2.9,0.7,2.7,2.8c-0.1,1.3,0,2.7,0,4c0.2,0.1,0.5,0.1,0.7,0.2c9.7-8.4,19.4-16.7,29.3-25.3
	C57.3,31.2,47.6,21.9,37.9,12.6L37.9,12.6z"/>
</svg>
