<?xml version="1.0" encoding="UTF-8"?>
<svg id="Layer_1" data-name="Layer 1" xmlns="http://www.w3.org/2000/svg" viewBox="0 0 333.72 262.76">
  <path d="M83.33,226.79c-16.08,0-31.53,.04-46.99-.01-18.4-.06-32.76-12.17-35.9-30.26-.4-2.32-.42-4.73-.42-7.09C0,138.81-.01,88.19,.02,37.57,.03,15.26,15.03,.05,37.26,.04c86.32-.05,172.64-.05,258.96,0,22.26,.01,37.41,15.14,37.44,37.42,.08,50.62,.08,101.24,0,151.85-.03,22.4-15.34,37.46-37.79,37.48-13.72,0-27.44,0-41.16,0-1.35,0-2.7,0-4.54,0,0,3.24,.04,6.2,0,9.15-.22,15.14-11.39,26.64-26.55,26.7-37.8,.16-75.59,.14-113.39,.01-15.18-.05-26.38-11.3-26.87-26.49-.1-2.97-.01-5.95-.01-9.38Zm95.44-125.21c.36-.14,.72-.28,1.09-.42,4.17,4.3,8.2,8.73,12.53,12.86,4.77,4.54,12.03,4.31,16.53-.21,4.38-4.4,4.88-11.71,.43-16.29-11.39-11.73-22.95-23.3-34.65-34.72-4.45-4.35-11.29-4.4-15.64-.15-11.78,11.52-23.51,23.1-34.89,35.01-6.27,6.56-2.43,17.49,6.44,19.37,4.5,.96,8.33-.54,11.54-3.81,3.98-4.05,7.99-8.08,12.78-12.91,0,2.48,0,3.8,0,5.12,0,16.49-.04,32.99,.03,49.48,.03,6.95,4.97,12.01,11.58,12.16,7.08,.16,12.18-5.22,12.21-13.14,.06-16.12,.02-32.24,.02-48.35,0-1.33,0-2.65,0-3.98Zm-71.6,125.35c0,2.14,0,3.88,0,5.61,0,6.2,.02,6.22,6.32,6.22,35.54,0,71.08,0,106.62,0,1.12,0,2.38,.3,3.33-.11,1.08-.47,2.57-1.5,2.67-2.42,.34-3.03,.13-6.12,.13-9.29H107.17Z"/>
</svg>